<svg width="19" height="20" viewBox="0 0 19 20" fill="none" xmlns="http://www.w3.org/2000/svg">
<path d="M18.6716 7.41243C18.6139 7.24262 18.5078 7.09341 18.3663 6.98322C18.2248 6.87303 18.0542 6.80669 17.8754 6.79238L12.6463 6.37688L10.3835 1.36786C10.3114 1.20653 10.1942 1.0695 10.046 0.97332C9.89773 0.877135 9.72484 0.825903 9.54815 0.825806C9.37146 0.825709 9.19851 0.876751 9.05019 0.972773C8.90186 1.0688 8.78449 1.20569 8.71225 1.36694L6.44944 6.37688L1.22029 6.79238C1.04459 6.8063 0.876632 6.87054 0.736494 6.97742C0.596357 7.08429 0.489977 7.22928 0.430082 7.39503C0.370186 7.56079 0.359312 7.74028 0.39876 7.91205C0.438207 8.08383 0.526306 8.24059 0.652517 8.36361L4.51682 12.1307L3.15015 18.0487C3.10865 18.2278 3.12195 18.4153 3.18832 18.5868C3.25469 18.7583 3.37107 18.9058 3.52236 19.0103C3.67365 19.1149 3.85286 19.1715 4.03673 19.1729C4.2206 19.1743 4.40065 19.1204 4.55351 19.0182L9.54785 15.6886L14.5422 19.0182C14.6984 19.1219 14.8827 19.1753 15.0702 19.1712C15.2577 19.1671 15.4394 19.1057 15.591 18.9952C15.7425 18.8847 15.8566 18.7305 15.9178 18.5532C15.9791 18.376 15.9846 18.1842 15.9336 18.0037L14.256 12.1334L18.4166 8.38929C18.689 8.14347 18.789 7.76007 18.6716 7.41243Z" fill="#F3CD03"/>
</svg>
